<?xml version="1.0" encoding="UTF-8" standalone="no"?>
<svg
   xmlns:dc="http://purl.org/dc/elements/1.1/"
   xmlns:cc="http://creativecommons.org/ns#"
   xmlns:rdf="http://www.w3.org/1999/02/22-rdf-syntax-ns#"
   xmlns:svg="http://www.w3.org/2000/svg"
   xmlns="http://www.w3.org/2000/svg"
   id="svg8"
   version="1.1"
   viewBox="0 0 15.874999 13.229167"
   height="50"
   width="60">
  <defs
     id="defs2" />
  <metadata
     id="metadata5">
    <rdf:RDF>
      <cc:Work
         rdf:about="">
        <dc:format>image/svg+xml</dc:format>
        <dc:type
           rdf:resource="http://purl.org/dc/dcmitype/StillImage" />
        <dc:title></dc:title>
      </cc:Work>
    </rdf:RDF>
  </metadata>
  <g
     transform="translate(0,-283.77081)"
     id="layer1">
    <path
       id="path4496"
       d="m 0.0430013,290.43814 v -6.6678 h 7.9268139 7.9268158 v 6.6678 6.66781 H 7.9698152 0.0430013 Z m 5.2558086,5.50757 c 0.015803,-0.0314 0.028735,-0.0841 0.028735,-0.1169 0,-0.0329 0.013081,-0.0737 0.029063,-0.091 0.015982,-0.0172 0.072544,-0.15723 0.1256875,-0.31117 0.053143,-0.15393 0.1422078,-0.40583 0.1979201,-0.55976 0.055716,-0.15394 0.1168134,-0.32435 0.1357791,-0.37867 0.039762,-0.11391 0.085087,-0.15348 0.1389992,-0.12135 0.020827,0.0123 0.2731132,0.25224 0.5606408,0.53295 0.287527,0.28069 0.6376794,0.6215 0.7781159,0.75733 0.1404371,0.13582 0.2815443,0.27288 0.3135719,0.30457 0.032028,0.0317 0.065438,0.0577 0.074246,0.0577 0.03772,0 0.010387,-0.11239 -0.064055,-0.26342 -0.044036,-0.0894 -0.080069,-0.17792 -0.080069,-0.19683 0,-0.0189 -0.028019,-0.0971 -0.062267,-0.17396 -0.034248,-0.0768 -0.1872199,-0.45074 -0.3399397,-0.83106 -0.1527204,-0.38032 -0.3032362,-0.75075 -0.3344795,-0.82318 -0.031243,-0.0725 -0.088948,-0.21321 -0.1282333,-0.31281 -0.039284,-0.0996 -0.1057604,-0.2593 -0.1477227,-0.35488 -0.04196,-0.0955 -0.076293,-0.19507 -0.076293,-0.2211 0,-0.0499 0.079512,-0.31656 0.1277102,-0.42832 0.015619,-0.0363 0.037063,-0.0978 0.047646,-0.13689 0.034611,-0.12776 0.098102,-0.10652 0.2472776,0.0827 0.5293041,0.67142 0.6161196,0.78031 0.633889,0.79506 0.010907,0.01 0.099986,0.12018 0.1979529,0.24696 0.2418158,0.31291 0.3119317,0.37588 0.3469359,0.31157 0.014748,-0.0271 0.060405,-0.0871 0.1014631,-0.13344 0.041059,-0.0463 0.3120175,-0.38315 0.6021318,-0.74855 0.2901145,-0.3654 0.5371638,-0.66437 0.5489978,-0.66437 0.011835,0 0.046649,0.063 0.077368,0.13995 0.1745583,0.43738 0.2053471,0.56914 0.1485048,0.6355 -0.014736,0.0172 -0.059473,0.11278 -0.099416,0.21238 -0.074371,0.18547 -0.1273519,0.31362 -0.2075825,0.50215 -0.025048,0.0588 -0.07589,0.1885 -0.1129797,0.28811 -0.037092,0.0996 -0.080016,0.21073 -0.095389,0.24695 -0.015376,0.0363 -0.056528,0.13254 -0.091448,0.21404 -0.034923,0.0815 -0.1536962,0.37784 -0.2639397,0.65854 -0.1102442,0.2807 -0.2344373,0.58722 -0.2759849,0.68114 -0.1565004,0.35376 -0.094866,0.32563 0.4368987,-0.19942 0.6604719,-0.65213 1.2435228,-1.20612 1.2693948,-1.20612 0.03244,0 0.04934,0.0397 0.248533,0.58446 0.349987,0.95706 0.44268,1.19362 0.467715,1.19362 0.02992,0 0.150351,-0.21741 0.461172,-0.8325 0.116981,-0.2315 0.267978,-0.52783 0.335548,-0.65854 0.06757,-0.13071 0.199095,-0.38582 0.29228,-0.56693 0.09318,-0.1811 0.22286,-0.43299 0.288165,-0.55976 0.0653,-0.12678 0.216409,-0.42311 0.335785,-0.65855 0.119377,-0.23543 0.229598,-0.44213 0.244935,-0.45934 0.01534,-0.0172 0.02789,-0.0579 0.02789,-0.0905 0,-0.0327 0.0108,-0.0594 0.02402,-0.0595 0.01322,-1.3e-4 0.0393,-0.0335 0.05796,-0.074 0.03155,-0.0686 0.189367,-0.37874 0.607313,-1.19336 0.602934,-1.1752 0.598252,-1.16551 0.584242,-1.20873 -0.01048,-0.0323 -0.175956,0.12004 -0.883547,0.81359 -0.33703,0.33035 -0.41169,0.40288 -0.727278,0.70664 -0.140373,0.1351 -0.406761,0.39441 -0.591975,0.57622 -0.642408,0.63064 -1.265356,1.22827 -1.40764,1.35044 -0.128749,0.11055 -0.145203,0.11671 -0.164956,0.0618 -0.01207,-0.0335 -0.05283,-0.14227 -0.09057,-0.24164 l -0.06863,-0.1807 0.14925,-0.37907 c 0.168961,-0.42913 0.220918,-0.55459 0.306127,-0.73924 0.03291,-0.0713 0.05984,-0.14131 0.05984,-0.15557 0,-0.0143 0.04127,-0.1189 0.0917,-0.23254 0.05044,-0.11364 0.102755,-0.24366 0.116276,-0.28894 0.01351,-0.0452 0.05319,-0.14899 0.08818,-0.23049 0.113621,-0.2647 0.14402,-0.33881 0.344398,-0.83965 0.195653,-0.48903 0.241439,-0.60047 0.351741,-0.85612 0.03125,-0.0725 0.08216,-0.19838 0.113114,-0.27988 0.06011,-0.15822 0.107184,-0.27621 0.183949,-0.46099 0.167541,-0.40327 0.214371,-0.53573 0.198654,-0.56188 -0.0097,-0.0163 -0.06391,0.0258 -0.12029,0.0933 -0.05638,0.0676 -0.109753,0.13026 -0.118589,0.13932 -0.0088,0.01 -0.03048,0.0405 -0.0481,0.07 -0.01761,0.0295 -0.181364,0.23691 -0.363889,0.46097 -0.182523,0.22407 -0.384296,0.47308 -0.448385,0.55335 -0.06409,0.0802 -0.153652,0.1914 -0.199029,0.24696 -0.04538,0.0555 -0.210435,0.26399 -0.366798,0.4632 -0.156362,0.19922 -0.292673,0.36961 -0.302913,0.37867 -0.01023,0.01 -0.07578,0.0905 -0.145642,0.18111 -0.069863,0.0905 -0.1345516,0.17204 -0.1437521,0.1811 -0.016939,0.0167 -0.3252934,0.39936 -0.3433299,0.42609 -0.024524,0.0364 -0.1004923,-0.10119 -0.1808277,-0.32731 -0.048246,-0.13583 -0.1012209,-0.27269 -0.1177155,-0.30414 -0.016495,-0.0314 -0.029991,-0.0798 -0.029991,-0.10745 0,-0.0277 -0.013202,-0.0761 -0.029334,-0.10747 -0.046326,-0.0903 -0.1196637,-0.27592 -0.1656819,-0.41938 -0.023238,-0.0725 -0.053726,-0.14578 -0.067742,-0.16299 -0.014021,-0.0172 -0.025487,-0.0623 -0.025487,-0.10044 0,-0.038 -0.011806,-0.0832 -0.026243,-0.10044 -0.014431,-0.0172 -0.066053,-0.14241 -0.1147118,-0.27823 -0.048662,-0.13583 -0.1006175,-0.27659 -0.1154638,-0.31281 -0.025066,-0.0612 -0.1758537,-0.48013 -0.3258839,-0.90551 -0.1072836,-0.30417 -0.2219019,-0.60609 -0.2529623,-0.66633 -0.016213,-0.0314 -0.029484,-0.0796 -0.029484,-0.10701 0,-0.0603 -0.050605,-0.0654 -0.085739,-0.009 -0.034364,0.0555 -0.2662797,0.6597 -0.2664389,0.6941 -1.223e-4,0.0247 -0.1242254,0.36855 -0.1921772,0.53245 -0.015018,0.0362 -0.080119,0.21403 -0.1446716,0.39513 -0.064553,0.1811 -0.1290426,0.35891 -0.1433106,0.39513 -0.014269,0.0363 -0.04339,0.11771 -0.064717,0.1811 -0.033597,0.0998 -0.1444127,0.40031 -0.224672,0.60916 -0.057549,0.14974 -0.1352664,0.36923 -0.1973387,0.55731 -0.036307,0.11 -0.078652,0.2141 -0.094096,0.2313 -0.015446,0.0172 -0.028077,0.0556 -0.028077,0.0855 0,0.0298 -0.023872,0.10342 -0.053044,0.16352 l -0.053045,0.10931 -0.060951,-0.0796 c -0.033521,-0.0437 -0.1862061,-0.23417 -0.3392944,-0.42314 -0.3575749,-0.44137 -0.7244304,-0.90008 -1.0462125,-1.30815 -0.1404866,-0.17816 -0.2633883,-0.33133 -0.273116,-0.34038 -0.00973,-0.01 -0.2093457,-0.25725 -0.4435954,-0.55153 -0.2342515,-0.29429 -0.4382247,-0.53507 -0.4532754,-0.53507 -0.049198,0 0.098977,0.40472 0.4124775,1.12665 0.037092,0.0854 0.1201702,0.29285 0.1846216,0.46098 0.064451,0.16813 0.1294624,0.31977 0.1444692,0.33697 0.015007,0.0172 0.027287,0.0501 0.027287,0.0732 0,0.0231 0.034572,0.12011 0.07682,0.21568 0.042254,0.0956 0.1231238,0.29231 0.1797157,0.43719 0.056592,0.14488 0.1312169,0.32806 0.165833,0.40707 0.034617,0.0791 0.1428208,0.34572 0.240454,0.59269 0.097634,0.24698 0.2060622,0.51572 0.2409517,0.59722 0.034888,0.0815 0.07492,0.17781 0.088956,0.21403 0.014038,0.0363 0.063044,0.15145 0.1089043,0.25608 0.095882,0.21876 0.1020819,0.34839 0.025545,0.53417 -0.1209868,0.29369 -0.09577,0.29576 -0.4280518,-0.0351 -0.1643316,-0.16367 -0.4140836,-0.40894 -0.5550051,-0.54504 -0.1409204,-0.1361 -0.3914377,-0.37981 -0.5567032,-0.54156 -0.3680742,-0.36027 -0.3997171,-0.39089 -0.9337772,-0.90327 -0.2359489,-0.22637 -0.5664049,-0.54694 -0.7343472,-0.71236 -0.6244024,-0.61504 -0.7193254,-0.69516 -0.6482556,-0.54712 0.1499029,0.31227 0.5610797,1.12407 0.6796124,1.3418 0.049296,0.0905 0.1754806,0.33503 0.2804081,0.5433 0.2891073,0.57384 0.5823022,1.14981 0.6788372,1.33356 0.077765,0.14802 0.1145618,0.21888 0.1966276,0.37867 0.013951,0.0271 0.073863,0.1457 0.1331346,0.26342 0.3287367,0.65287 0.6157936,1.21383 0.6655764,1.30063 0.031163,0.0544 0.1495078,0.28428 0.2629933,0.51102 0.2448408,0.48916 0.2812881,0.55663 0.3434285,0.63577 0.045172,0.0576 0.0485,0.0568 0.075355,-0.0165 0.015452,-0.0421 0.041025,-0.10235 0.056828,-0.13384 z m 5.5235941,-1.2345 c -0.03033,-0.0864 -0.07037,-0.19418 -0.08898,-0.23945 -0.06945,-0.16903 -0.08728,-0.21784 -0.135738,-0.3716 -0.06884,-0.21841 -0.06669,-0.22756 0.08647,-0.36842 0.07486,-0.0688 0.381128,-0.3654 0.680585,-0.65898 0.590737,-0.57913 0.765421,-0.74129 0.798555,-0.74129 0.01179,0 -0.06401,0.16669 -0.168454,0.37043 -0.104443,0.20374 -0.26545,0.51862 -0.357796,0.69971 -0.09234,0.1811 -0.237019,0.46264 -0.321491,0.62562 -0.08448,0.16299 -0.212309,0.41351 -0.28408,0.5567 -0.07177,0.14319 -0.135762,0.26576 -0.142203,0.27239 -0.0064,0.006 -0.03653,-0.0587 -0.06686,-0.14511 z m -5.8187078,-0.0501 c -0.088233,-0.17913 -0.3861089,-0.76385 -0.540972,-1.06191 -0.065866,-0.12677 -0.2104358,-0.4083 -0.3212647,-0.62561 -0.1108289,-0.21733 -0.2286528,-0.44495 -0.26183,-0.50584 -0.1389738,-0.25506 -0.062147,-0.19562 0.6479499,0.50135 0.1501267,0.14735 0.4219305,0.41296 0.6040087,0.59025 0.3739231,0.36407 0.3590525,0.30716 0.1953598,0.7478 -0.057186,0.15393 -0.1200018,0.32803 -0.1395932,0.38689 -0.047992,0.14419 -0.1011102,0.13467 -0.1836585,-0.0329 z m 1.1743517,-0.83256 c -0.088269,-0.0979 -0.097493,-0.13644 -0.050825,-0.21232 0.023347,-0.038 0.045224,-0.0135 0.098267,0.10975 0.081522,0.18947 0.064352,0.22659 -0.047438,0.10256 z m 3.5372684,0.0432 c 0,-0.0266 0.02299,-0.0958 0.051083,-0.15364 0.041135,-0.0848 0.059846,-0.0978 0.096083,-0.0669 0.074968,0.0639 0.059504,0.10193 -0.091245,0.22369 -0.047779,0.0386 -0.055922,0.0381 -0.055922,-0.003 z M 7.9681184,292.8661 C 7.94957,292.8528 7.8627797,292.75301 7.7752502,292.64434 7.5272377,292.33645 7.4974813,292.29979 7.3668666,292.14122 7.2994712,292.0594 7.1652034,291.89051 7.0684925,291.7659 l -0.1758382,-0.22658 0.1170695,-0.32006 c 0.064388,-0.17605 0.1290575,-0.34971 0.1437108,-0.38592 0.028729,-0.0711 0.3032477,-0.82548 0.3594331,-0.98783 0.018802,-0.0543 0.052,-0.14324 0.073775,-0.19757 0.021778,-0.0543 0.068896,-0.18028 0.1047141,-0.27987 0.2297608,-0.63895 0.3042993,-0.82084 0.3297605,-0.80467 0.01582,0.01 0.028769,0.0352 0.028769,0.0558 0,0.0313 0.2965943,0.87817 0.3833526,1.09463 0.1238205,0.30893 0.1743858,0.44572 0.2251086,0.60896 0.049359,0.15886 0.1777121,0.50284 0.2888,0.77399 0.01484,0.0362 0.056581,0.15093 0.092761,0.25491 l 0.06578,0.18903 -0.2146098,0.27195 c -0.1180357,0.14957 -0.241761,0.30157 -0.274945,0.3378 -0.033187,0.0363 -0.0985,0.1177 -0.1451457,0.18108 -0.046649,0.0634 -0.099224,0.13198 -0.1168389,0.1524 -0.017614,0.0204 -0.096884,0.11973 -0.1761513,0.22066 -0.1534712,0.19542 -0.1578806,0.19882 -0.2098763,0.16152 z m -1.9013769,-0.96574 c -0.04053,-0.0979 -0.1081332,-0.25626 -0.1502253,-0.35187 -0.042092,-0.0957 -0.076531,-0.18088 -0.076531,-0.18949 0,-0.009 -0.03603,-0.0925 -0.080069,-0.18629 -0.08557,-0.18236 -0.099535,-0.2571 -0.048044,-0.2571 0.017614,0 0.03223,0.0111 0.032472,0.0247 2.451e-4,0.0136 0.081113,0.12101 0.1797088,0.23872 0.3667828,0.43791 0.3809775,0.4697 0.3014264,0.67502 -0.014033,0.0362 -0.038909,0.1015 -0.055277,0.1451 -0.027985,0.0745 -0.034179,0.0686 -0.1034594,-0.0987 z m 3.7169003,-0.0343 c -0.082845,-0.20495 -0.083766,-0.22918 -0.011801,-0.31044 0.031093,-0.0351 0.1139619,-0.13749 0.1841585,-0.22751 0.2115777,-0.27134 0.2210807,-0.28315 0.2957757,-0.3675 0.101076,-0.11414 0.09343,-0.0301 -0.02046,0.22512 -0.05089,0.114 -0.14817,0.35173 -0.216186,0.5283 -0.068017,0.17656 -0.1325553,0.32102 -0.1434186,0.32103 -0.01086,1e-5 -0.050495,-0.0761 -0.088075,-0.169 z M 1.75571,289.34331 c 0.02442,-0.0636 0.075992,-0.31998 0.1022631,-0.50827 0.01664,-0.11924 0.014765,-0.12174 -0.1063377,-0.14244 -0.0678,-0.0116 -0.1609202,-0.0356 -0.2069332,-0.0536 -0.046014,-0.0179 -0.1467762,-0.0279 -0.2239165,-0.0221 -0.1118705,0.009 -0.1420381,0.0236 -0.1490637,0.0762 -0.00484,0.0363 -0.03201,0.17388 -0.060372,0.30591 -0.028359,0.13203 -0.041579,0.25057 -0.029374,0.26342 0.024927,0.0263 0.4769658,0.13159 0.582996,0.13585 0.037749,0.002 0.078583,-0.0232 0.090739,-0.0548 z m 12.933107,-0.004 c 0.137192,-0.0337 0.25578,-0.0679 0.263531,-0.0759 0.01255,-0.013 -0.0088,-0.15937 -0.07595,-0.5208 -0.01918,-0.10321 -0.03304,-0.11609 -0.133134,-0.12338 -0.06145,-0.004 -0.21261,0.0178 -0.335916,0.0495 -0.253006,0.065 -0.246114,0.0493 -0.18086,0.41458 0.06528,0.36548 0.05049,0.3573 0.462326,0.25597 z m -11.0578153,-2.0538 c 0.1187496,-0.0827 0.2543954,-0.32651 0.2518196,-0.45275 -0.00254,-0.12474 -0.1274298,-0.33434 -0.2494653,-0.4187 -0.1584308,-0.1095 -0.423125,-0.10543 -0.5687702,0.009 -0.1415958,0.11103 -0.2031617,0.24105 -0.2031617,0.42906 0,0.18279 0.090871,0.35356 0.236851,0.44509 0.1425923,0.0894 0.3955771,0.0839 0.5327266,-0.0115 z m 9.2903393,-10e-4 c 0.135322,-0.0935 0.217374,-0.26001 0.219384,-0.44498 0.0032,-0.29567 -0.195337,-0.50051 -0.485169,-0.50051 -0.515179,0 -0.710141,0.65096 -0.283493,0.94656 0.148325,0.10278 0.399849,0.10225 0.549278,-10e-4 z M 8.3049874,286.1675 c 0.1415352,-0.14868 0.2573375,-0.28426 0.2573375,-0.30131 0,-0.017 -0.037542,-0.11395 -0.083425,-0.21536 -0.045881,-0.10139 -0.095841,-0.21402 -0.111013,-0.25024 -0.2273551,-0.54272 -0.3198373,-0.74093 -0.3455504,-0.74061 -0.02408,3.2e-4 -0.054683,0.0646 -0.2508439,0.52659 -0.080731,0.19015 -0.1808317,0.41888 -0.2224445,0.5083 -0.041613,0.0894 -0.075659,0.16901 -0.075659,0.1769 0,0.0264 0.5234558,0.56604 0.5490317,0.56604 0.013877,0 0.1410311,-0.12164 0.2825666,-0.27031 z"
       style="fill:#000000;stroke-width:0.03247437" />
  </g>
</svg>
